<svg version="1.1" id="Layer_1" xmlns="http://www.w3.org/2000/svg" xmlns:xlink="http://www.w3.org/1999/xlink" x="0px" y="0px"
	 width="100%" viewBox="0 0 200 200" enable-background="new 0 0 200 200" xml:space="preserve">
<path fill="#020202" opacity="1.000000" stroke="none" 
	d="
M111.000000,201.000000 
	C74.022827,201.000000 37.545647,201.000000 1.034236,201.000000 
	C1.034236,134.397858 1.034236,67.795700 1.034236,1.096767 
	C67.560341,1.096767 134.120865,1.096767 200.840698,1.096767 
	C200.840698,67.666367 200.840698,134.333145 200.840698,201.000000 
	C171.129318,201.000000 141.314651,201.000000 111.000000,201.000000 
M104.035042,85.058548 
	C107.402863,84.881752 111.474861,83.422997 113.987465,84.803146 
	C118.770203,87.430283 122.662041,91.679359 126.923805,95.254959 
	C124.094810,91.790977 122.090996,87.910629 120.141373,84.003250 
	C118.448112,80.609650 117.255951,76.862503 115.047600,73.855202 
	C112.181236,69.951820 107.638130,70.171875 105.095673,74.293976 
	C103.125320,77.488518 102.105316,81.269218 100.149048,85.240196 
	C97.676880,87.693428 95.321609,90.288315 92.646706,92.495880 
	C92.013023,93.018822 90.047821,92.607025 89.155724,91.975037 
	C87.898048,91.084053 87.100258,89.560555 86.051697,88.354553 
	C83.253830,85.136559 81.397980,80.747475 76.792847,79.871948 
	C78.927948,84.389854 80.893982,88.700981 83.006554,92.939056 
	C83.754105,94.438713 84.859039,95.760231 85.847862,97.172470 
	C85.847862,97.172470 85.833923,97.111336 86.511826,97.158371 
	C87.978203,97.616852 89.499939,97.947823 90.901199,98.556267 
	C96.446625,100.964104 96.737457,100.892105 99.166298,95.130692 
	C100.570427,91.799980 101.876968,88.428123 104.035042,85.058548 
z"/>
<path fill="#EC6313" opacity="1.000000" stroke="none" 
	d="
M85.800812,97.163078 
	C84.859039,95.760231 83.754105,94.438713 83.006554,92.939056 
	C80.893982,88.700981 78.927948,84.389854 76.792847,79.871948 
	C81.397980,80.747475 83.253830,85.136559 86.051697,88.354553 
	C87.100258,89.560555 87.898048,91.084053 89.155724,91.975037 
	C90.047821,92.607025 92.013023,93.018822 92.646706,92.495880 
	C95.321609,90.288315 97.676880,87.693428 100.832047,85.067276 
	C102.085838,84.954491 102.656631,85.014633 103.227432,85.074783 
	C101.876968,88.428123 100.570427,91.799980 99.166298,95.130692 
	C96.737457,100.892105 96.446625,100.964104 90.901199,98.556267 
	C89.499939,97.947823 87.978203,97.616852 86.175934,97.615913 
	C86.280090,98.351746 86.720123,98.630035 87.160164,98.908325 
	C87.317352,98.645142 87.474541,98.381950 87.631721,98.118759 
	C87.021416,97.800201 86.411118,97.481636 85.800812,97.163078 
z"/>
<path fill="#EC4712" opacity="1.000000" stroke="none" 
	d="
M103.631241,85.066666 
	C102.656631,85.014633 102.085838,84.954491 101.088943,84.841858 
	C102.105316,81.269218 103.125320,77.488518 105.095673,74.293976 
	C107.638130,70.171875 112.181236,69.951820 115.047600,73.855202 
	C117.255951,76.862503 118.448112,80.609650 120.141373,84.003250 
	C122.090996,87.910629 124.094810,91.790977 126.923805,95.254959 
	C122.662041,91.679359 118.770203,87.430283 113.987465,84.803146 
	C111.474861,83.422997 107.402863,84.881752 103.631241,85.066666 
M107.805679,74.311607 
	C107.333214,75.055748 106.860748,75.799896 106.617607,76.182846 
	C109.514511,77.072578 112.073425,77.858505 115.123505,78.795288 
	C113.961014,74.855209 112.457115,72.531006 107.805679,74.311607 
z"/>
<path fill="#020202" opacity="1.000000" stroke="none" 
	d="
M85.824341,97.167770 
	C86.411118,97.481636 87.021416,97.800201 87.631721,98.118759 
	C87.474541,98.381950 87.317352,98.645142 87.160164,98.908325 
	C86.720123,98.630035 86.280090,98.351746 85.836990,97.592392 
	C85.833923,97.111336 85.847862,97.172470 85.824341,97.167770 
z"/>
<path fill="#020202" opacity="1.000000" stroke="none" 
	d="
M108.104118,74.106384 
	C112.457115,72.531006 113.961014,74.855209 115.123505,78.795288 
	C112.073425,77.858505 109.514511,77.072578 106.617607,76.182846 
	C106.860748,75.799896 107.333214,75.055748 108.104118,74.106384 
z"/>
</svg>